<mxfile host="app.diagrams.net" modified="2020-09-16T15:38:07.186Z" agent="5.0 (Macintosh; Intel Mac OS X 10_15_6) AppleWebKit/537.36 (KHTML, like Gecko) Chrome/85.0.4183.83 Safari/537.36" etag="QTQ0yV5KvS8wXqY-IrM7" version="13.7.1" type="github">
  <diagram id="v4z71Zi-yq8gm4GYkrE3" name="Page-1">
    <mxGraphModel dx="788" dy="492" grid="1" gridSize="10" guides="1" tooltips="1" connect="1" arrows="1" fold="1" page="1" pageScale="1" pageWidth="850" pageHeight="1100" math="0" shadow="0">
      <root>
        <mxCell id="0" />
        <mxCell id="1" parent="0" />
        <mxCell id="EZ5JNh-nYhdaD2HAmFAv-8" style="edgeStyle=orthogonalEdgeStyle;rounded=0;orthogonalLoop=1;jettySize=auto;html=1;exitX=1;exitY=0.5;exitDx=0;exitDy=0;exitPerimeter=0;entryX=0;entryY=0.875;entryDx=0;entryDy=0;entryPerimeter=0;endArrow=none;endFill=0;" edge="1" parent="1" source="EZ5JNh-nYhdaD2HAmFAv-1" target="EZ5JNh-nYhdaD2HAmFAv-6">
          <mxGeometry relative="1" as="geometry">
            <Array as="points">
              <mxPoint x="310" y="300" />
              <mxPoint x="448" y="300" />
            </Array>
          </mxGeometry>
        </mxCell>
        <mxCell id="EZ5JNh-nYhdaD2HAmFAv-13" value="L0" style="edgeLabel;html=1;align=center;verticalAlign=middle;resizable=0;points=[];" vertex="1" connectable="0" parent="EZ5JNh-nYhdaD2HAmFAv-8">
          <mxGeometry x="-0.8066" relative="1" as="geometry">
            <mxPoint x="10" y="-21.94" as="offset" />
          </mxGeometry>
        </mxCell>
        <mxCell id="EZ5JNh-nYhdaD2HAmFAv-1" value="" style="verticalLabelPosition=bottom;shadow=0;dashed=0;align=center;html=1;verticalAlign=top;shape=mxgraph.electrical.logic_gates.logic_gate;operation=and;negating=1;rotation=90;numInputs=3;" vertex="1" parent="1">
          <mxGeometry x="260" y="150" width="100" height="60" as="geometry" />
        </mxCell>
        <mxCell id="EZ5JNh-nYhdaD2HAmFAv-9" style="edgeStyle=orthogonalEdgeStyle;rounded=0;orthogonalLoop=1;jettySize=auto;html=1;exitX=1;exitY=0.5;exitDx=0;exitDy=0;exitPerimeter=0;entryX=0;entryY=0.625;entryDx=0;entryDy=0;entryPerimeter=0;endArrow=none;endFill=0;" edge="1" parent="1" source="EZ5JNh-nYhdaD2HAmFAv-2" target="EZ5JNh-nYhdaD2HAmFAv-6">
          <mxGeometry relative="1" as="geometry" />
        </mxCell>
        <mxCell id="EZ5JNh-nYhdaD2HAmFAv-14" value="L1" style="edgeLabel;html=1;align=center;verticalAlign=middle;resizable=0;points=[];" vertex="1" connectable="0" parent="EZ5JNh-nYhdaD2HAmFAv-9">
          <mxGeometry x="-0.6981" y="3" relative="1" as="geometry">
            <mxPoint x="7" y="-20" as="offset" />
          </mxGeometry>
        </mxCell>
        <mxCell id="EZ5JNh-nYhdaD2HAmFAv-2" value="" style="verticalLabelPosition=bottom;shadow=0;dashed=0;align=center;html=1;verticalAlign=top;shape=mxgraph.electrical.logic_gates.logic_gate;operation=and;negating=1;rotation=90;numInputs=3;" vertex="1" parent="1">
          <mxGeometry x="370" y="150" width="100" height="60" as="geometry" />
        </mxCell>
        <mxCell id="EZ5JNh-nYhdaD2HAmFAv-10" style="edgeStyle=orthogonalEdgeStyle;rounded=0;orthogonalLoop=1;jettySize=auto;html=1;exitX=1;exitY=0.5;exitDx=0;exitDy=0;exitPerimeter=0;entryX=0;entryY=0.375;entryDx=0;entryDy=0;entryPerimeter=0;endArrow=none;endFill=0;" edge="1" parent="1" source="EZ5JNh-nYhdaD2HAmFAv-3" target="EZ5JNh-nYhdaD2HAmFAv-6">
          <mxGeometry relative="1" as="geometry" />
        </mxCell>
        <mxCell id="EZ5JNh-nYhdaD2HAmFAv-15" value="L2" style="edgeLabel;html=1;align=center;verticalAlign=middle;resizable=0;points=[];" vertex="1" connectable="0" parent="EZ5JNh-nYhdaD2HAmFAv-10">
          <mxGeometry x="-0.7614" relative="1" as="geometry">
            <mxPoint x="10" y="-16.94" as="offset" />
          </mxGeometry>
        </mxCell>
        <mxCell id="EZ5JNh-nYhdaD2HAmFAv-3" value="" style="verticalLabelPosition=bottom;shadow=0;dashed=0;align=center;html=1;verticalAlign=top;shape=mxgraph.electrical.logic_gates.logic_gate;operation=and;negating=1;rotation=90;numInputs=3;" vertex="1" parent="1">
          <mxGeometry x="480" y="150" width="100" height="60" as="geometry" />
        </mxCell>
        <mxCell id="EZ5JNh-nYhdaD2HAmFAv-11" style="edgeStyle=orthogonalEdgeStyle;rounded=0;orthogonalLoop=1;jettySize=auto;html=1;exitX=1;exitY=0.5;exitDx=0;exitDy=0;exitPerimeter=0;entryX=0;entryY=0.125;entryDx=0;entryDy=0;entryPerimeter=0;endArrow=none;endFill=0;" edge="1" parent="1" source="EZ5JNh-nYhdaD2HAmFAv-4" target="EZ5JNh-nYhdaD2HAmFAv-6">
          <mxGeometry relative="1" as="geometry">
            <Array as="points">
              <mxPoint x="630" y="300" />
              <mxPoint x="493" y="300" />
            </Array>
          </mxGeometry>
        </mxCell>
        <mxCell id="EZ5JNh-nYhdaD2HAmFAv-16" value="L3" style="edgeLabel;html=1;align=center;verticalAlign=middle;resizable=0;points=[];" vertex="1" connectable="0" parent="EZ5JNh-nYhdaD2HAmFAv-11">
          <mxGeometry x="-0.7626" y="1" relative="1" as="geometry">
            <mxPoint x="9" y="-26.94" as="offset" />
          </mxGeometry>
        </mxCell>
        <mxCell id="EZ5JNh-nYhdaD2HAmFAv-4" value="" style="verticalLabelPosition=bottom;shadow=0;dashed=0;align=center;html=1;verticalAlign=top;shape=mxgraph.electrical.logic_gates.logic_gate;operation=and;negating=1;rotation=90;numInputs=3;" vertex="1" parent="1">
          <mxGeometry x="580" y="150" width="100" height="60" as="geometry" />
        </mxCell>
        <mxCell id="EZ5JNh-nYhdaD2HAmFAv-6" value="" style="verticalLabelPosition=bottom;shadow=0;dashed=0;align=center;html=1;verticalAlign=top;shape=mxgraph.electrical.logic_gates.logic_gate;operation=and;negating=1;rotation=90;numInputs=4;" vertex="1" parent="1">
          <mxGeometry x="420" y="340" width="100" height="60" as="geometry" />
        </mxCell>
        <mxCell id="EZ5JNh-nYhdaD2HAmFAv-12" value="OUT" style="text;html=1;align=center;verticalAlign=middle;resizable=0;points=[];autosize=1;" vertex="1" parent="1">
          <mxGeometry x="450" y="420" width="40" height="20" as="geometry" />
        </mxCell>
        <mxCell id="EZ5JNh-nYhdaD2HAmFAv-17" value="S0" style="edgeLabel;html=1;align=center;verticalAlign=middle;resizable=0;points=[];" vertex="1" connectable="0" parent="1">
          <mxGeometry x="330" y="120.00444444444446" as="geometry">
            <mxPoint x="2" as="offset" />
          </mxGeometry>
        </mxCell>
        <mxCell id="EZ5JNh-nYhdaD2HAmFAv-18" value="S1" style="edgeLabel;html=1;align=center;verticalAlign=middle;resizable=0;points=[];" vertex="1" connectable="0" parent="1">
          <mxGeometry x="440" y="120.00444444444446" as="geometry">
            <mxPoint x="2" as="offset" />
          </mxGeometry>
        </mxCell>
        <mxCell id="EZ5JNh-nYhdaD2HAmFAv-19" value="S2" style="edgeLabel;html=1;align=center;verticalAlign=middle;resizable=0;points=[];" vertex="1" connectable="0" parent="1">
          <mxGeometry x="550" y="120.00444444444446" as="geometry">
            <mxPoint x="2" as="offset" />
          </mxGeometry>
        </mxCell>
        <mxCell id="EZ5JNh-nYhdaD2HAmFAv-20" value="S3" style="edgeLabel;html=1;align=center;verticalAlign=middle;resizable=0;points=[];" vertex="1" connectable="0" parent="1">
          <mxGeometry x="650" y="120.00444444444446" as="geometry">
            <mxPoint x="2" as="offset" />
          </mxGeometry>
        </mxCell>
        <mxCell id="EZ5JNh-nYhdaD2HAmFAv-21" value="A&#39;" style="edgeLabel;html=1;align=center;verticalAlign=middle;resizable=0;points=[];" vertex="1" connectable="0" parent="1">
          <mxGeometry x="290" y="120.00444444444446" as="geometry">
            <mxPoint x="2" as="offset" />
          </mxGeometry>
        </mxCell>
        <mxCell id="EZ5JNh-nYhdaD2HAmFAv-23" value="A&#39;" style="edgeLabel;html=1;align=center;verticalAlign=middle;resizable=0;points=[];" vertex="1" connectable="0" parent="1">
          <mxGeometry x="400" y="120.00444444444446" as="geometry">
            <mxPoint x="2" as="offset" />
          </mxGeometry>
        </mxCell>
        <mxCell id="EZ5JNh-nYhdaD2HAmFAv-24" value="" style="edgeLabel;html=1;align=center;verticalAlign=middle;resizable=0;points=[];" vertex="1" connectable="0" parent="1">
          <mxGeometry x="310" y="140.00444444444446" as="geometry">
            <mxPoint x="200" y="-20" as="offset" />
          </mxGeometry>
        </mxCell>
        <mxCell id="EZ5JNh-nYhdaD2HAmFAv-25" value="A" style="edgeLabel;html=1;align=center;verticalAlign=middle;resizable=0;points=[];" vertex="1" connectable="0" parent="1">
          <mxGeometry x="510" y="120.00444444444446" as="geometry">
            <mxPoint x="2" as="offset" />
          </mxGeometry>
        </mxCell>
        <mxCell id="EZ5JNh-nYhdaD2HAmFAv-26" value="A" style="edgeLabel;html=1;align=center;verticalAlign=middle;resizable=0;points=[];" vertex="1" connectable="0" parent="1">
          <mxGeometry x="610" y="120.00444444444446" as="geometry">
            <mxPoint x="2" as="offset" />
          </mxGeometry>
        </mxCell>
        <mxCell id="EZ5JNh-nYhdaD2HAmFAv-27" value="B&#39;" style="edgeLabel;html=1;align=center;verticalAlign=middle;resizable=0;points=[];" vertex="1" connectable="0" parent="1">
          <mxGeometry x="310" y="121.00444444444446" as="geometry">
            <mxPoint x="1" y="-1" as="offset" />
          </mxGeometry>
        </mxCell>
        <mxCell id="EZ5JNh-nYhdaD2HAmFAv-28" value="B&#39;" style="edgeLabel;html=1;align=center;verticalAlign=middle;resizable=0;points=[];" vertex="1" connectable="0" parent="1">
          <mxGeometry x="530" y="121.00444444444446" as="geometry">
            <mxPoint x="1" y="-1" as="offset" />
          </mxGeometry>
        </mxCell>
        <mxCell id="EZ5JNh-nYhdaD2HAmFAv-29" value="B" style="edgeLabel;html=1;align=center;verticalAlign=middle;resizable=0;points=[];" vertex="1" connectable="0" parent="1">
          <mxGeometry x="420" y="121.00444444444446" as="geometry">
            <mxPoint x="1" y="-1" as="offset" />
          </mxGeometry>
        </mxCell>
        <mxCell id="EZ5JNh-nYhdaD2HAmFAv-30" value="B" style="edgeLabel;html=1;align=center;verticalAlign=middle;resizable=0;points=[];" vertex="1" connectable="0" parent="1">
          <mxGeometry x="630" y="119.00444444444446" as="geometry">
            <mxPoint y="1" as="offset" />
          </mxGeometry>
        </mxCell>
      </root>
    </mxGraphModel>
  </diagram>
</mxfile>
